<svg xmlns="http://www.w3.org/2000/svg" xmlns:xlink="http://www.w3.org/1999/xlink" width="2000" zoomAndPan="magnify" viewBox="0 0 1500 449.999984" height="600" preserveAspectRatio="xMidYMid meet" version="1.0"><defs><clipPath id="25128e84b1"><path d="M 717.171875 358.351562 L 900.46875 358.351562 L 900.46875 450 L 717.171875 450 Z M 717.171875 358.351562 " clip-rule="nonzero"/></clipPath><clipPath id="3f8ed5fca7"><path d="M 808.820312 358.351562 C 758.203125 358.351562 717.171875 399.382812 717.171875 450 C 717.171875 500.617188 758.203125 541.648438 808.820312 541.648438 C 859.4375 541.648438 900.46875 500.617188 900.46875 450 C 900.46875 399.382812 859.4375 358.351562 808.820312 358.351562 Z M 808.820312 358.351562 " clip-rule="nonzero"/></clipPath><clipPath id="15cb64b40e"><path d="M 45 45 L 125.25 45 L 125.25 125.25 L 45 125.25 Z M 45 45 " clip-rule="nonzero"/></clipPath><clipPath id="98c88fc140"><path d="M 1383.757812 333.980469 L 1468.664062 333.980469 L 1468.664062 418.890625 L 1383.757812 418.890625 Z M 1383.757812 333.980469 " clip-rule="nonzero"/></clipPath><clipPath id="8455b2ec85"><path d="M 1426.210938 333.980469 C 1402.765625 333.980469 1383.757812 352.988281 1383.757812 376.433594 C 1383.757812 399.882812 1402.765625 418.890625 1426.210938 418.890625 C 1449.660156 418.890625 1468.664062 399.882812 1468.664062 376.433594 C 1468.664062 352.988281 1449.660156 333.980469 1426.210938 333.980469 Z M 1426.210938 333.980469 " clip-rule="nonzero"/></clipPath><clipPath id="9ef647cb9d"><path d="M 191.820312 235.195312 L 336.570312 235.195312 L 336.570312 379.945312 L 191.820312 379.945312 Z M 191.820312 235.195312 " clip-rule="nonzero"/></clipPath><clipPath id="3505978100"><path d="M 373.199219 157.492188 L 440.699219 157.492188 L 440.699219 224.992188 L 373.199219 224.992188 Z M 373.199219 157.492188 " clip-rule="nonzero"/></clipPath><clipPath id="d8e0806543"><path d="M 1394.257812 27.089844 L 1500 27.089844 L 1500 143.339844 L 1394.257812 143.339844 Z M 1394.257812 27.089844 " clip-rule="nonzero"/></clipPath><clipPath id="cfcf76765e"><path d="M 1105.605469 0 L 1293.855469 0 L 1293.855469 73.59375 L 1105.605469 73.59375 Z M 1105.605469 0 " clip-rule="nonzero"/></clipPath><clipPath id="5e6702b5c1"><path d="M 59.625 86 L 85.125 86 L 85.125 238 L 59.625 238 Z M 59.625 86 " clip-rule="nonzero"/></clipPath></defs><rect x="-150" width="1800" fill="#ffffff" y="-44.999998" height="539.99998" fill-opacity="1"/><rect x="-150" width="1800" fill="#ffffff" y="-44.999998" height="539.99998" fill-opacity="1"/><g clip-path="url(#25128e84b1)"><g clip-path="url(#3f8ed5fca7)"><path fill="#51c7f4" d="M 717.171875 358.351562 L 900.46875 358.351562 L 900.46875 541.648438 L 717.171875 541.648438 Z M 717.171875 358.351562 " fill-opacity="1" fill-rule="nonzero"/></g></g><g clip-path="url(#15cb64b40e)"><path fill="#e05a47" d="M 45 125.25 C 89.320312 125.25 125.25 89.320312 125.25 45 L 45 45 Z M 45 125.25 " fill-opacity="1" fill-rule="nonzero"/></g><g clip-path="url(#98c88fc140)"><g clip-path="url(#8455b2ec85)"><path fill="#ffaaa1" d="M 1383.757812 333.980469 L 1468.664062 333.980469 L 1468.664062 418.890625 L 1383.757812 418.890625 Z M 1383.757812 333.980469 " fill-opacity="1" fill-rule="nonzero"/></g></g><g clip-path="url(#9ef647cb9d)"><path fill="#fddf3a" d="M 256.273438 235.207031 L 191.820312 235.207031 C 191.820312 315.144531 256.621094 379.945312 336.558594 379.945312 L 336.558594 315.492188 C 292.21875 315.492188 256.273438 279.546875 256.273438 235.207031 Z M 256.273438 235.207031 " fill-opacity="1" fill-rule="nonzero"/></g><g clip-path="url(#3505978100)"><path fill="#fddf3a" d="M 373.199219 157.269531 C 373.199219 194.671875 403.519531 224.992188 440.921875 224.992188 L 440.921875 157.269531 Z M 373.199219 157.269531 " fill-opacity="1" fill-rule="nonzero"/></g><g clip-path="url(#d8e0806543)"><path fill="#f46424" d="M 1510.496094 78.851562 L 1510.496094 27.089844 C 1446.296875 27.089844 1394.257812 79.128906 1394.257812 143.328125 L 1446.019531 143.328125 C 1446.019531 107.71875 1474.886719 78.851562 1510.496094 78.851562 Z M 1510.496094 78.851562 " fill-opacity="1" fill-rule="nonzero"/></g><g clip-path="url(#cfcf76765e)"><path fill="#51c7f4" d="M 1105.644531 73.59375 L 1105.644531 -106.417969 L 1293.855469 -106.417969 " fill-opacity="1" fill-rule="nonzero"/></g><g clip-path="url(#5e6702b5c1)"><path fill="#fdaca3" d="M 59.714844 98.898438 C 59.714844 91.894531 65.414062 86.195312 72.417969 86.195312 C 79.425781 86.195312 85.125 91.894531 85.125 98.898438 C 85.125 105.902344 79.425781 111.601562 72.417969 111.601562 C 65.414062 111.601562 59.714844 105.902344 59.714844 98.898438 Z M 80.417969 98.898438 C 80.417969 94.488281 76.828125 90.902344 72.417969 90.902344 C 68.011719 90.902344 64.421875 94.488281 64.421875 98.898438 C 64.421875 103.308594 68.011719 106.894531 72.417969 106.894531 C 76.828125 106.894531 80.417969 103.308594 80.417969 98.898438 Z M 59.714844 140.960938 C 59.714844 133.957031 65.414062 128.257812 72.417969 128.257812 C 79.425781 128.257812 85.125 133.957031 85.125 140.960938 C 85.125 147.964844 79.425781 153.664062 72.417969 153.664062 C 65.414062 153.664062 59.714844 147.964844 59.714844 140.960938 Z M 80.417969 140.960938 C 80.417969 136.550781 76.828125 132.964844 72.417969 132.964844 C 68.011719 132.964844 64.421875 136.550781 64.421875 140.960938 C 64.421875 145.371094 68.011719 148.957031 72.417969 148.957031 C 76.828125 148.957031 80.417969 145.371094 80.417969 140.960938 Z M 59.714844 183.023438 C 59.714844 176.019531 65.414062 170.320312 72.417969 170.320312 C 79.425781 170.320312 85.125 176.019531 85.125 183.023438 C 85.125 190.03125 79.425781 195.730469 72.417969 195.730469 C 65.414062 195.730469 59.714844 190.03125 59.714844 183.023438 Z M 80.417969 183.023438 C 80.417969 178.617188 76.828125 175.027344 72.417969 175.027344 C 68.011719 175.027344 64.421875 178.617188 64.421875 183.023438 C 64.421875 187.433594 68.011719 191.023438 72.417969 191.023438 C 76.828125 191.023438 80.417969 187.433594 80.417969 183.023438 Z M 59.714844 225.089844 C 59.714844 218.082031 65.414062 212.382812 72.417969 212.382812 C 79.425781 212.382812 85.125 218.082031 85.125 225.089844 C 85.125 232.09375 79.425781 237.792969 72.417969 237.792969 C 65.414062 237.792969 59.714844 232.09375 59.714844 225.089844 Z M 80.417969 225.089844 C 80.417969 220.679688 76.828125 217.089844 72.417969 217.089844 C 68.011719 217.089844 64.421875 220.679688 64.421875 225.089844 C 64.421875 229.5 68.011719 233.085938 72.417969 233.085938 C 76.828125 233.085938 80.417969 229.5 80.417969 225.089844 Z M 80.417969 225.089844 " fill-opacity="1" fill-rule="nonzero"/></g></svg>