<svg 
xmlns="http://www.w3.org/2000/svg" 
xmlns:xlink="http://www.w3.org/1999/xlink" 
width="500" 
zoomAndPan="magnify" 
viewBox="0 0 375 374.999991" 
height="500" 
preserveAspectRatio="xMidYMid meet" 
version="1.0"><defs><g/><clipPath id="f3f7a9f41d">
<path d="M 47.8125 37.5 L 326.8125 37.5 L 326.8125 316.5 L 47.8125 316.5 Z M 47.8125 37.5 " clip-rule="nonzero"/></clipPath></defs><g clip-path="url(#f3f7a9f41d)">
<path fill="#000000" d="M 187.3125 316.5 C 110.417969 316.5 47.8125 253.898438 47.8125 177 C 47.8125 100.101562 110.417969 37.5 187.3125 37.5 C 264.210938 37.5 326.8125 100.101562 326.8125 177 C 326.8125 253.898438 264.210938 316.5 187.3125 316.5 Z M 187.3125 39.5625 C 111.515625 39.5625 49.875 101.203125 49.875 177 C 49.875 252.796875 111.515625 314.4375 187.3125 314.4375 C 263.109375 314.4375 324.75 252.796875 324.75 177 C 324.75 101.203125 263.109375 39.5625 187.3125 39.5625 Z M 187.3125 39.5625 " fill-opacity="1" fill-rule="nonzero"/></g>
<g fill="#060606" fill-opacity="1"><g transform="translate(175.589055, 232.389653)"><g><path d="M 5.46875 -31.730469 C 17.507812 -6.292969 34.054688 2.734375 55.9375 2.734375 C 73.851562 2.734375 89.171875 -6.429688 89.171875 -25.847656 C 89.171875 -44.3125 76.316406 -53.203125 50.464844 -70.433594 C 30.773438 -83.425781 24.753906 -87.667969 24.753906 -96.28125 C 24.753906 -103.667969 31.183594 -109.273438 41.988281 -109.273438 C 59.765625 -109.273438 66.742188 -94.09375 70.707031 -79.050781 L 86.847656 -85.75 C 74.535156 -104.488281 60.722656 -112.148438 43.355469 -112.148438 C 25.984375 -112.148438 11.898438 -103.941406 11.898438 -87.941406 C 11.898438 -73.167969 20.925781 -65.648438 43.21875 -50.464844 C 65.238281 -35.011719 76.453125 -27.761719 76.453125 -17.230469 C 76.453125 -6.429688 69.066406 -0.136719 57.578125 -0.136719 C 39.25 -0.136719 26.121094 -17.507812 21.746094 -40.757812 Z M 5.46875 -31.730469 "/></g></g></g><g fill="#060606" fill-opacity="1"><g transform="translate(263.391854, 232.389653)"><g><path d="M 19.695312 2.734375 L 29.816406 -7.386719 L 19.695312 -17.507812 L 9.574219 -7.386719 Z M 19.695312 2.734375 "/></g></g></g>
<g fill="#060606" fill-opacity="1"><g transform="translate(97.372573, 232.389653)"><g><path d="M 9.847656 -109.410156 C 10.941406 -99.019531 11.351562 -92.863281 11.351562 -80.144531 L 11.351562 -29.269531 C 11.351562 -16.546875 10.804688 -10.394531 9.574219 0 L 79.597656 0 L 84.65625 -10.667969 C 66.46875 -3.828125 58.261719 -2.871094 44.039062 -2.871094 L 34.328125 -2.871094 L 34.328125 -80.144531 C 34.328125 -92.863281 34.738281 -99.019531 35.832031 -109.410156 Z M 9.847656 -109.410156 "/></g></g></g></svg>